<?xml version="1.0" standalone="no"?><!DOCTYPE svg PUBLIC "-//W3C//DTD SVG 1.1//EN" "http://www.w3.org/Graphics/SVG/1.1/DTD/svg11.dtd"><svg t="1768657637788" class="icon" viewBox="0 0 1027 1024" version="1.1" xmlns="http://www.w3.org/2000/svg" p-id="3057" id="mx_n_1768657637832" width="64.1875" height="64" xmlns:xlink="http://www.w3.org/1999/xlink"><path d="M84.79436708 557.85823225c-2.41359091-2.41359091 0 0 0 0zM140.30696298 714.7416563c-12.06795597-16.89513779-16.89513779-31.37668467-24.13591123-48.27182316l-2.41359091 2.41359091c2.41359091-2.41359091-4.82718253-4.82718253 0-4.82718182-2.41359091-2.41359091-7.24077344-2.41359162-4.82718253-9.65436435 0-9.65436506 0-14.48154688-7.24077344-21.72232032-2.41359091 2.41359091-4.82718182 0-4.82718182 0 2.41359091-2.41359091 4.82718182 0 7.24077344-2.41359162-2.41359162-7.24077344 0-14.48154688-7.24077344-21.72232032l-4.82718253 7.1e-7c0-4.82718182 0-4.82718182-2.41359091-7.24077415 9.65436435-4.82718253 2.41359091-16.89513779-2.41359162-26.54950214 7.24077344-2.41359162-2.41359162-7.24077344 4.82718253-9.65436435 0-4.82718182-4.82718182 0-4.82718253-7e-7l-2.41359091-2.41359091c-2.41359091 2.41359091-7.24077344 7.24077344-9.65436435 4.82718252 2.41359162-7.24077344-4.82718253-9.65436435-2.41359091-12.06795596l2.41359091-2.41359091 2.41359091 2.41359091c0-4.82718182 2.41359162-7.24077344 7.24077344-7.24077344 2.41359091-2.41359091-4.82718182 0-7.24077344-2.41359162-4.82718182 0 0 4.82718182-2.41359162 2.41359162 0 0 2.41359091-2.41359091 7.1e-7-4.82718253-4.82718182 0-7.24077344 2.41359162-9.65436435 4.82718253 4.82718253 4.82718253 2.41359162 7.24077344 2.41359091 12.06795596 2.41359091-2.41359091 2.41359091-2.41359091 4.82718182 0l-4.82718182 4.82718183c2.41359091 12.06795597 4.82718182 28.96309376 9.65436435 43.44464134 9.65436435-4.82718253 4.82718253 9.65436435 12.06795597 7.24077273-2.41359091 2.41359091 0 4.82718182-7.1e-7 4.82718253-2.41359091-2.41359091-4.82718182 0-7.24077273 2.41359091 9.65436435 4.82718253 4.82718253 9.65436435 7.24077344 16.8951385 4.82718182 0 0-4.82718182 4.82718253-4.82718253-2.41359162 7.24077344-4.82718253 9.65436435-9.65436506 14.48154688 4.82718253 9.65436435 9.65436506 14.48154688 12.06795597 26.54950284 4.82718182 0 0-4.82718182 4.82718182-9.65436505 4.82718182 0-2.41359091 2.41359091 7e-7 4.82718253 4.82718182 0 4.82718182 0 9.65436435-4.82718253 0 4.82718182 2.41359091 12.06795597-4.82718252 9.65436435 0 0 2.41359091-2.41359091 0-4.82718182-2.41359091 2.41359091-2.41359162 7.24077344-4.82718253 9.65436435 9.65436435 4.82718253 4.82718253 9.65436435 9.65436505 14.48154687 2.41359091-2.41359091 4.82718182 0 7.24077274-2.41359091 0 0 0 4.82718182-2.41359021 7.24077344l4.82718183 4.82718182c-4.82718182 0-2.41359091 2.41359091-4.82718253 4.82718253 4.82718253 4.82718253 4.82718253 9.65436435 7.24077414 12.06795597 2.41359091 2.41359091 4.82718253 4.82718253 4.82718182 9.65436506 0-4.82718182 7.24077344-2.41359162 9.65436435-4.82718253 2.41359091 2.41359091-7.24077344 2.41359162 0 4.82718182 4.82718182 0 0-4.82718182 2.41359162-7.24077344l4.82718253 4.82718253L147.54773712 726.80961227c-2.41359091-2.41359091-7.24077344-2.41359162-9.65436435-4.82718253 2.41359091-2.41359091 0-4.82718182 2.41359021-7.24077344m-33.79027558-57.92618751s-4.82718182 0 0 0c-2.41359091-2.41359091 0 0 0 0m72.40773439 125.50674008c-2.41359091 2.41359091 0 0 0 0m0 0l4.82718253-4.82718252c-2.41359162-7.24077344-7.24077344-12.06795526-16.8951385-16.8951385 2.41359091-2.41359091 0-4.82718182-2.41359091-7.24077273-2.41359091 2.41359091 0 4.82718182-2.41359091 2.41359091s0-4.82718182-7.1e-7-4.82718253c-4.82718182 0-9.65436435-4.82718253-7.24077344-7.24077344l-12.06795526 12.06795526c0 4.82718182-2.41359162 7.24077344 4.82718182 9.65436506 4.82718182 0-2.41359091-2.41359091 7.1e-7-4.82718253 4.82718253 4.82718253 16.89513779 12.06795597 9.65436435 14.48154758l2.41359162-2.41359161-9.65436506 0c7.24077344 7.24077344 12.06795597 16.89513779 19.3087287 14.48154688l-4.82718182 4.82718182c2.41359091-2.41359091 9.65436435-9.65436435 14.48154688-9.65436365" fill="#6366F1" p-id="3058"></path><path d="M145.1341455 738.87756753c7.24077344-2.41359162 12.06795526 7.24077344 4.82718253-4.82718253-4.82718253 4.82718253-9.65436435 4.82718253-12.06795597 7.24077415 0 0-7.24077344-2.41359162-4.82718182 0 7.24077344 2.41359162 2.41359162 7.24077344 7.24077344 12.06795526l7.24077344-7.24077344s0-4.82718182-2.41359162-7.24077344zM72.72641111 507.17281747c2.41359162 7.24077344 4.82718253 4.82718253 4.82718253 4.82718253l2.41359091-2.41359091-2.41359091-2.41359091c0 4.82718182-4.82718182 0-4.82718253-7.1e-7zM888.52021885 468.55535936c-7.24077344 2.41359162-21.72232032 7.24077344-14.48154688 14.48154688 0 4.82718182 2.41359091-2.41359091 4.82718182 0-2.41359162 7.24077344-4.82718182 0-4.82718182 4.82718182 2.41359091 12.06795597-4.82718253 24.13591123 7.24077344 36.2038672-2.41359091 2.41359091-2.41359162-7.24077344-4.82718253 7.1e-7 2.41359091 2.41359091 0 4.82718182-2.41359091 7.24077273l2.41359162 2.41359162c-4.82718253 4.82718253 4.82718182 14.48154688-2.41359162 12.06795526 2.41359091 2.41359091 4.82718182 0 4.82718253 4.82718253 0 0 0-4.82718182 2.41359091-2.41359091 0 4.82718182 2.41359091 2.41359091 2.41359091 2.41359091-2.41359091 2.41359091 0 4.82718182-4.82718182 9.65436505l-2.41359162-2.41359161-2.41359091 2.41359091c2.41359091 2.41359091 2.41359091 2.41359091 9.65436435 4.82718253-2.41359091 2.41359091-4.82718182 0-7.24077273-2.41359091 0 4.82718182 0 4.82718182-2.41359162 12.06795526l21.72232032 12.06795667c-2.41359091-2.41359091-4.82718182 0-2.41359162-2.41359162l0-14.48154688c0-4.82718182-4.82718182 0-2.41359091-2.41359091 0 0 2.41359091 2.41359091 4.82718253-7e-7l0-4.82718182c0-4.82718182-4.82718182 0-4.82718253-4.82718253l2.41359161 2.41359161c2.41359091-2.41359091 0-4.82718182 4.82718183-9.65436505l-4.82718183-4.82718182 4.82718253-4.82718253c-7.24077344-21.72232032 9.65436435-38.61745811-9.65436505-57.92618752 0 0 0 4.82718182-2.41359091 2.41359091 4.82718182 0 2.41359162-7.24077344 7.24077343-7.24077344 0 4.82718182 4.82718182 0 2.41359092 7.24077415 4.82718253-4.82718253 2.41359091-16.89513779-4.82718253-19.30872941-4.82718182 0 0 0-2.41359091 2.41359091zM171.68364835 548.2038672c-2.41359091 2.41359091-2.41359091 2.41359091-4.82718182 0-4.82718182 0 2.41359091 2.41359091-7.1e-7 4.82718253 2.41359091 2.41359091 2.41359091-2.41359091 4.82718253-7.1e-7 0 4.82718182-4.82718182 0-9.65436435 4.82718253 4.82718182 0 0 4.82718182 2.41359091 7.24077414 2.41359091-2.41359091 4.82718253-4.82718253 7.24077344-2.41359161 2.41359162-7.24077344 2.41359091-12.06795597 0-14.48154688zM869.21148944 463.72817684z m-518.92209602-325.83480478z m518.92209602 321.00762295c-2.41359091 2.41359091 0 4.82718182 0 0 0 4.82718182 2.41359091 2.41359091 0 0zM164.44287491 791.97657252l2.41359162 2.41359161c2.41359162-7.24077344 7.24077344-2.41359162 9.65436435-4.82718252 4.82718182 0-4.82718253-4.82718253-12.06795597 2.41359091z m-84.47569036-238.94552279L82.38077546 555.44464064c2.41359091-2.41359091 0 0-2.41359091-2.41359091z m-7.24077273-41.03104973l-4.82718253 4.82718253c2.41359091 2.41359091 4.82718182 0 7.24077344-2.41359162-4.82718182 0 2.41359091-2.41359091-2.41359091-2.41359091zM174.09723926 560.27182316z" fill="#6366F1" p-id="3059"></path><path d="M335.80784654 784.73579978c-7.24077344-2.41359162-16.89513779-12.06795597-24.13591193-9.65436505 0-4.82718182-4.82718253-4.82718253-9.65436435-4.82718253-7.24077344-12.06795526-26.54950214-21.72232032-38.61745882-33.79027558 0 0-2.41359091 2.41359091-4.82718182 0 2.41359091-2.41359091 4.82718182 0 4.82718182 0-9.65436435-9.65436435-14.48154688-19.3087287-26.54950214-21.72232032l2.41359092-2.41359091c-4.82718253-4.82718253-7.24077344-7.24077344-9.65436435-14.48154758-4.82718182 0-4.82718182 0-7.24077344 2.41359161 2.41359091-2.41359091 0-4.82718182 0-4.82718182 2.41359091 2.41359091 4.82718182 0 4.82718252-7.1e-7-4.82718253-4.82718253-4.82718253-9.65436435-9.65436505-14.48154687-2.41359091 2.41359091 0 4.82718182-2.41359091 2.41359091 0-4.82718182-2.41359091-12.06795597-4.82718182-19.3087287-2.41359091 2.41359091 0 4.82718182-2.41359162 2.41359161 0 0-4.82718182 0-2.41359162-2.41359161 0 0 2.41359091 2.41359091 4.82718324 0-4.82718253-4.82718253-4.82718253-9.65436435-12.06795597-16.89513779-2.41359091-2.41359091-2.41359091 2.41359091-4.82718253-7.1e-7 0 0-4.82718182 0-2.41359091-2.41359091 2.41359091 2.41359091 2.41359091 2.41359091 4.82718182 0 0-4.82718182-9.65436435-4.82718253-9.65436435-9.65436435 2.41359091-2.41359091 2.41359162 7.24077344 4.82718182 0-7.24077344-12.06795526-4.82718253-24.13591123-12.06795526-36.2038672-2.41359091 2.41359091-4.82718182 0-4.82718182 0 0-4.82718182 4.82718182 0 7.24077273-2.41359091-4.82718182-14.48154688-7.24077344-26.54950214-7.24077273-41.03104972l-4.82718253 4.82718252-2.41359162-2.41359161 0 14.48154688c4.82718182 0-2.41359091-2.41359091 0-4.82718183l2.41359091 2.41359091c-2.41359091 2.41359091-2.41359162 7.24077344-4.82718182 9.65436506 2.41359091 2.41359091 4.82718182 0 4.82718253-7.1e-7-2.41359162 7.24077344-2.41359091 16.89513779 9.65436435 28.96309447-4.82718182 0-2.41359091 2.41359091-2.41359091 2.41359091 2.41359091 2.41359091 2.41359162 7.24077344 4.82718253 9.65436435 2.41359091-2.41359091 4.82718182 0 7.24077273 2.41359091-2.41359091-2.41359091-4.82718182 0-7.24077344 2.41359162 2.41359091 2.41359091 7.24077344 7.24077344 4.82718253 9.65436435 0 4.82718182 2.41359091-2.41359091 4.82718182 0-4.82718182 0 2.41359091 2.41359091 7.1e-7 4.82718253 12.06795597 16.89513779 19.30872941 48.27182316 41.03104972 60.33977842 2.41359091 2.41359091-2.41359091 2.41359091-7e-7 4.82718253s4.82718182 0 7.24077414 2.41359091l-2.41359162 2.41359162c7.24077344 2.41359162 9.65436435 9.65436435 12.06795597 16.89513779 0-4.82718182 4.82718182 0 7.24077344-2.41359162-2.41359091-2.41359091-4.82718182 0-4.82718253-4.82718253 4.82718182 0 4.82718182 0 7.24077344 2.41359162-2.41359091 2.41359091 2.41359091 2.41359091 0 4.82718182l-7.24077344 7.24077344c-2.41359091-2.41359091-2.41359091-2.41359091-4.82718253 7.1e-7 9.65436435 9.65436435 21.72232032 16.8951385 33.79027629 28.96309305 2.41359091-2.41359091 0-4.82718182 2.41359091-2.41359091l-2.41359091 2.41359091c4.82718182 0 14.48154688 9.65436506 19.3087287 9.65436506 0 0-2.41359091 2.41359091 7.1e-7 4.82718253 19.30872941 9.65436435 36.2038672 21.72232032 55.5125959 26.54950213 4.82718253 4.82718253 16.89513779 12.06795597 21.72232031 7.24077344 0 0-2.41359091 2.41359091 7.1e-7 4.82718253 12.06795597 2.41359091 21.72232032 7.24077344 36.2038672 7.24077344l9.65436364 0c4.82718182 0-4.82718182 0 7.1e-7-4.82718253 2.41359162 7.24077344 7.24077344 7.24077344 9.65436435 4.82718253 2.41359091 2.41359091-2.41359091 2.41359091-2.41359091 2.41359091 2.41359091 2.41359091 7.24077344-2.41359162 9.65436435 4.82718253 4.82718182 0 0-4.82718182 4.82718253-4.82718253l-7.1e-7 4.82718253 4.82718323 0 2.41359091 2.41359091 2.41359092-2.41359091 2.41359091 2.41359091 2.41359091-2.41359091c9.65436435 4.82718253 24.13591194 0 36.2038679 2.41359091 7.24077344-7.24077344 14.48154688 0 21.72232032-7.24077344l9.65436435 9.65436435c2.41359091-2.41359091 9.65436435-4.82718253 12.06795526-12.06795526 2.41359162 7.24077344 9.65436435 4.82718253 9.65436506 4.82718182 33.79027629-9.65436435 55.5125966-16.89513779 89.30287218-36.20386649-2.41359162-7.24077344-9.65436506 0-12.06795526-7.24077344-36.2038672 21.72232032-57.92618751 28.96309376-91.7164638 33.79027629-2.41359091 2.41359091-7.24077344 12.06795526-12.06795526 12.06795526 0-4.82718182 0-4.82718182-4.82718253-9.65436435-31.37668467 2.41359091-62.75337004 4.82718253-91.7164638-7.1e-7l-2.41359162 2.41359162c-4.82718253-9.65436435-14.48154688-9.65436506-21.72232032-7.24077344-14.48154688-9.65436506-31.37668538-7.24077344-48.27182246-19.3087287-2.41359091 2.41359091 0 4.82718182-2.41359091 2.41359091 0-4.82718182-12.06795597-12.06795597-19.3087294-9.65436435 0 0 7.24077344-2.41359162 4.82718252-4.82718253z m-260.66784381-284.80375575c0 4.82718182-4.82718253 4.82718253-2.41359162 7.24077344 0 0 4.82718253-4.82718253 2.41359162-7.24077344z m279.97657322 135.16110444c0 4.82718182 0 4.82718182 2.41359021 7.24077344 2.41359091-2.41359091 2.41359091-2.41359091-2.41359021-7.24077344z m436.85999657-137.57469535l2.41359161-2.41359162c-2.41359091-2.41359091-4.82718182 0-2.41359161 2.41359162z m-43.44463993-149.64265131c-2.41359162-7.24077344-4.82718182 0-7.24077415-2.41359092l4.82718253-4.82718252c-12.06795597-12.06795597-14.48154688-14.48154688-21.72232032-26.54950214-4.82718182 0-4.82718182 0-9.65436435-4.82718253l4.82718253-4.82718253-4.82718253-4.82718253c0 4.82718182-2.41359091 2.41359091-4.82718182 9.65436506 2.41359091 2.41359091 4.82718253 9.65436435 7.24077344 7.24077344 0 4.82718182 9.65436435 9.65436435 9.65436364 14.48154688 0-4.82718182 7.24077344-2.41359162 9.65436506 4.82718182l-2.41359162 2.41359162c-2.41359091-2.41359091-2.41359162-7.24077344-7.24077273-2.41359092 9.65436435 4.82718253 4.82718253 9.65436435 12.06795597 16.89513779 2.41359162-7.24077344 7.24077344-2.41359162 9.65436435-4.82718252z m14.48154688 43.44464063c-2.41359091 2.41359091 0 9.65436506 4.82718182 14.48154688 2.41359091-2.41359091 2.41359091-2.41359091 4.82718253 7.1e-7-2.41359091-2.41359091-2.41359091-2.41359091 0-4.82718324l4.82718182-4.82718182c-4.82718182 0-7.24077344-12.06795526-7.24077273-16.89513779-2.41359091-2.41359091-4.82718182 0-4.82718253-7.1e-7 2.41359091-2.41359091-2.41359162-7.24077344-7.24077344-7.24077344 7.24077344-2.41359162-4.82718253-4.82718253-12.06795526-12.06795526 2.41359091-2.41359091 0-4.82718182 4.82718182-4.82718182-2.41359091-2.41359091 0-4.82718182-2.41359091-7.24077414L741.29115915 355.11657525c7.24077344 2.41359162 4.82718253 9.65436435 12.06795597 12.06795596-2.41359091 12.06795597 2.41359091 16.89513779 9.65436435 24.13591123l2.41359091-2.41359091c-2.41359091 2.41359091 0 4.82718182-2.41359162 7.24077344-2.41359091-2.41359091 4.82718253-4.82718253 7.1e-7-4.82718253z m9.65436435 9.65436435c-2.41359091 2.41359091-4.82718182 0-2.41359091-2.41359091l2.41359091 2.41359091z m16.89513779 41.03104973c-2.41359091 2.41359091-4.82718182 0-7.24077344 2.41359162 0-4.82718182 9.65436435-4.82718253 7.24077344-2.41359162-4.82718253-9.65436435 2.41359091-12.06795597-7.24077274-16.89513779 0 4.82718182 2.41359162 7.24077344 2.41359021 7.24077344l-4.82718182 0c0 4.82718182 0 9.65436506 2.41359091 16.89513779 2.41359091-2.41359091 2.41359091-2.41359091 7.24077344 2.41359161 0-4.82718182 0-4.82718182 4.82718252-4.82718252-7.24077344-2.41359162 2.41359091-2.41359091-4.82718252-4.82718253z" fill="#6366F1" p-id="3060"></path><path d="M782.32220887 410.62917185c-2.41359091 2.41359091 0 4.82718182-2.41359161 7.24077344l-2.41359091-2.41359091c-4.82718182 0-2.41359091 2.41359091-2.41359092 2.41359091 0 4.82718182 4.82718182 0 7.24077274 2.41359091-2.41359091 2.41359091 0 4.82718182 2.41359091 12.06795597 4.82718182 0 0-4.82718182 4.82718253-9.65436435-7.24077344-2.41359162-4.82718253-9.65436435-7.24077274-12.06795597zM487.86408877 203.06033302s-2.41359091-2.41359091 0 0c-2.41359091-2.41359091-2.41359091-2.41359091 0 0-4.82718182 0-4.82718182 0 0 0z m224.46397662 89.30287289l-7.24077344-7.24077344c-2.41359091 2.41359091 0 4.82718182-2.41359091 2.41359091 2.41359091 2.41359091 2.41359162 7.24077344-7.1e-7 4.82718253 2.41359091-2.41359091 2.41359091-2.41359091 7.1e-7-4.82718253s-7.24077344-7.24077344-9.65436506-4.82718182c0-4.82718182-12.06795597-16.89513779-16.89513849-16.8951385-2.41359091 2.41359091 0 4.82718182-4.82718182 0-2.41359091-2.41359091 4.82718182 0 0-4.82718182-2.41359091-2.41359091-4.82718182 0-7.24077344-2.41359162 2.41359162-7.24077344-12.06795597-16.89513779-19.30872941-19.3087294-4.82718182 0 2.41359091 2.41359091 7.1e-7 4.82718252 0-4.82718182-2.41359091 2.41359091-4.82718324 0 7.24077344-2.41359162 0 0 7.1e-7-4.82718252-2.41359091 2.41359091-2.41359162 7.24077344-4.82718253 4.82718252l4.82718253-4.82718252c-12.06795597-12.06795597-21.72232032-7.24077344-33.79027629-19.30872941 0 4.82718182-4.82718182 0-4.82718253 7.1e-7-24.13591123-9.65436435-45.85823155-16.89513779-67.58055186-19.30872941l-2.41359091 2.41359091c-2.41359091 2.41359091-7.24077344 2.41359162-9.65436435 4.82718253 28.96309376 9.65436506 57.92618751 9.65436506 86.88928127 28.96309375 4.82718182 0 12.06795526 7.24077344 16.89513779 2.41359092-2.41359091 2.41359091-2.41359091 2.41359091-7.1e-7 4.82718252 12.06795597 2.41359091 24.13591123 19.30872941 36.2038672 21.72232032 4.82718253 9.65436435 21.72232032 16.8951385 33.79027699 28.96309376l7.24077344 7.24077344c2.41359091-2.41359091 0-4.82718182-7.1e-7-4.82718253 2.41359091-2.41359091 7.24077344-2.41359162 9.65436506-4.82718182zM490.27767968 205.47392393v0z m306.52607537 325.83480548c4.82718182 0-2.41359091-2.41359091 7e-7-4.82718253-2.41359091 2.41359091-4.82718182 0-7.24077414 2.41359091 7.24077344 2.41359162 7.24077344-2.41359162 7.24077344 2.41359162z m-9.65436435-28.96309447c0 4.82718182 4.82718253 9.65436435 2.41359091 12.06795597 4.82718182 0 7.24077344-2.41359162 9.65436505-4.82718182-7.24077344 2.41359162 4.82718253-9.65436435-4.82718253-14.48154759l0 9.65436506c0-4.82718182-4.82718253-4.82718253-7.24077343-2.41359162z m-2.41359092-45.85823154c2.41359091 2.41359091-2.41359091 2.41359091-2.41359161 7.24077344 2.41359091 2.41359091 2.41359162 7.24077344 4.82718253 9.65436435 2.41359091 2.41359091 2.41359091-2.41359091 4.82718252 7e-7l4.82718253-4.82718253c-2.41359091-2.41359091 0-4.82718182-4.82718253-9.65436435L794.39016413 456.4874041c-4.82718182 0 0-4.82718182 0-4.82718323-4.82718182 0-2.41359091 2.41359091-2.41359161 2.41359162 0 4.82718182-2.41359091-2.41359091-7.24077274 2.41359091z" fill="#6366F1" p-id="3061"></path><path d="M796.80375505 492.69127059s-2.41359091 2.41359091 0 0c-2.41359091 2.41359091 0 0 0 0z m-308.93966628-289.63093757c-2.41359091 2.41359091-4.82718182 0-4.82718253 7.1e-7l4.82718253-7.1e-7c-4.82718253-4.82718253-7.24077344-2.41359162-12.06795597-2.41359091-2.41359091 2.41359091-2.41359162 7.24077344-4.82718253 4.82718253 4.82718253-9.65436435-9.65436506 0-14.48154617-4.82718253-2.41359162 7.24077344-14.48154688 0-14.48154758 9.65436435-4.82718182 0 2.41359091-2.41359091 0-4.82718182l-4.82718182 4.82718182c-2.41359162-7.24077344-7.24077344 2.41359162-12.06795597-2.41359091-2.41359091 2.41359091-4.82718182 0-9.65436435 4.82718253 2.41359091 2.41359091 4.82718182 0 2.41359091 2.41359091l-2.41359091 2.41359091c-2.41359091-2.41359091-7.24077344-2.41359162-9.65436506-4.82718182 0 0 7.24077344-2.41359162 2.41359162-2.41359162-4.82718253 4.82718253-7.24077344 2.41359162-12.06795597 2.41359091 2.41359091 2.41359091 7.24077344 2.41359162 4.82718253 4.82718253-2.41359091-2.41359091-2.41359091-2.41359091-4.82718253 7e-7 26.54950285 2.41359091 53.09900499-9.65436435 79.64850783-7.24077343-2.41359091-2.41359091 0-4.82718182 2.41359091-7.24077415L480.62331533 205.47392464l7.24077344-2.41359162c-2.41359091 2.41359091-2.41359091 2.41359091 0 0z m308.93966628 318.59403133c-2.41359091-2.41359091-2.41359091-2.41359091 0 0l-4.82718253-9.65436435c-2.41359091 2.41359091 0 4.82718182-2.41359021 7.24077344 0 4.82718182 2.41359091 2.41359091 7.24077274 2.41359091z m0-33.79027558c-4.82718253-4.82718253-7.24077344-7.24077344-7.24077274-12.06795597 0 4.82718182-2.41359091-2.41359091-4.82718323 0s7.24077344 12.06795526 4.82718323 14.48154688c4.82718253-4.82718253 7.24077344-2.41359162 7.24077274-2.41359091z m-596.15701294 325.83480406l-2.41359162 2.41359162c4.82718182 0 0 4.82718182 2.41359162 2.41359162-2.41359091-2.41359091-2.41359091-2.41359091 0-4.82718324zM480.62331533 210.30110646c2.41359091-2.41359091 4.82718253-4.82718253 7.24077273-2.41359091l-2.41359091-2.41359091-4.82718182 4.82718182z" fill="#6366F1" p-id="3062"></path><path d="M318.91270805 154.78851056s0-4.82718182 4.82718253-4.82718253c2.41359091 2.41359091-7.24077344 7.24077344-4.82718253 4.82718253 7.24077344-7.24077344 12.06795597-2.41359091 19.30872941-9.65436435 2.41359091-2.41359091 2.41359162-7.24077344 2.41359091-7.24077415l2.41359091-2.41359091c2.41359091 2.41359091-2.41359091 2.41359091 2.41359161 7.24077344 4.82718182 0-2.41359091-2.41359091 0-4.82718182l2.41359162-2.41359162-2.41359162-2.41359161c2.41359091-2.41359091 0-4.82718182 2.41359092-7.24077274-2.41359091 2.41359091 2.41359091 2.41359091 0 4.82718183 0 4.82718182 2.41359091-2.41359091 4.82718252 7e-7l2.41359092 7.24077273-2.41359092-2.41359091s-2.41359091 2.41359091 0 4.82718183c24.13591123-9.65436435 50.68541408-16.8951385 74.82132531-16.89513779l4.82718253-4.82718253 2.41359162 2.41359162c7.24077344-7.24077344 14.48154688 0 24.13591122-4.82718253L466.14176845 123.41182519c4.82718253-4.82718253 14.48154688-4.82718182 24.13591123 7e-7 12.06795597 2.41359091 21.72232032-2.41359162 31.37668467 2.41359091 4.82718182 0 7.24077344-2.41359162 12.06795597-2.41359091 2.41359162 7.24077344 4.82718182 0 9.65436506 4.82718182 16.89513779-2.41359091 38.61745811 9.65436435 57.9261868 9.65436435 31.37668467 16.89513779 67.58055186 24.13591123 101.37082815 53.0990057 4.82718182 0 0-4.82718182 2.41359162-2.41359162 16.8951385 21.72232032 48.27182246 43.44464064 74.82132531 69.99414348 2.41359091-2.41359091 2.41359091-2.41359091 4.82718182 0-4.82718182 0 0 4.82718182 7e-7 4.82718253 9.65436435 4.82718253 12.06795597 16.89513779 16.89513779 16.89513779 0 4.82718182 7.24077344 21.72232032 14.48154688 14.48154688l-4.82718253 4.82718253c2.41359091 2.41359091 7.24077344 7.24077344 4.82718253 9.65436435 4.82718182 0 0-4.82718182 2.41359162-7.24077344 0 4.82718182 2.41359091-2.41359091 4.82718182 0 0 4.82718182-2.41359091-2.41359091-4.82718182 0 2.41359091 2.41359091 0 4.82718182-7.1e-7 4.82718253 7.24077344 7.24077344 12.06795597 16.89513779 14.48154759 24.13591123 0 0 2.41359091-2.41359091 4.82718182 0 0-4.82718182 4.82718182 0 4.82718253-9.65436435l2.41359091 2.41359091c-2.41359091 2.41359091-2.41359091 2.41359091 0 4.82718182-4.82718182 0-4.82718182 0-9.65436435 4.82718253 0 4.82718182 2.41359091-2.41359091 4.82718182 0 0 0 4.82718182 0 2.41359162 2.41359161 0 0-2.41359091-2.41359091-4.82718253-7e-7 2.41359091 2.41359091 2.41359091 2.41359091 0 4.82718323 0 4.82718182 4.82718182 0 4.82718253-7e-7L833.00762224 350.28939342c19.30872941 33.79027629 21.72232032 69.99414278 33.79027629 106.19801068 2.41359091-2.41359091 4.82718182 0 7.24077344 2.41359021l-2.41359162 2.41359161 2.41359162 2.41359162c7.24077344-2.41359162 14.48154688-9.65436506 19.3087294-14.48154758-7.24077344-2.41359162 0-9.65436506-7.24077343-12.06795526 4.82718182 0 2.41359091-2.41359091 2.41359091-2.41359091-9.65436506-28.96309376-14.48154688-53.09900569-24.13591194-82.06209946-2.41359091-2.41359091-2.41359091 2.41359091-4.82718182 0l2.41359091-2.41359091c-7.24077344-7.24077344-7.24077344-21.72232032-16.89513779-26.54950284 2.41359091 2.41359091 2.41359091 2.41359091 0 4.82718182-4.82718182 0-9.65436435-4.82718253-12.06795597-7.24077273 2.41359091-2.41359091 4.82718182 0 7.24077344-2.41359162 4.82718182 0-4.82718182 0 7.1e-7 4.82718253 2.41359091-2.41359091 2.41359091 2.41359091 4.82718182 0-9.65436506-14.48154688-16.89513779-31.37668467-28.96309376-43.44464064-2.41359091 2.41359091-2.41359091 2.41359091-4.82718182 0 4.82718182 0 0-4.82718182-4.82718253-9.65436435-2.41359091 2.41359091-4.82718182 0-7.24077344-2.41359162l7.24077344-7.24077344c-4.82718253-9.65436435-19.30872941-9.65436435-14.48154688-19.3087287-7.24077344-2.41359162-4.82718253-4.82718253-12.06795596-7.24077414-2.41359162-7.24077344-16.89513779-16.89513779-28.96309376-24.13591052-2.41359091 2.41359091-7.24077344-2.41359162-7.24077344 2.4135902l-2.41359091-2.41359091c2.41359091-2.41359091 4.82718182 0 4.82718182 0-12.06795597-16.89513779-21.72232032-16.8951385-33.79027558-28.96309376-2.41359162-7.24077344-4.82718253-9.65436435-7.24077344-7.24077344-4.82718253-9.65436435-21.72232032-16.8951385-31.37668467-16.89513779-4.82718182 0 2.41359091-2.41359091-7e-7-4.82718253-9.65436435-4.82718253-16.89513779-12.06795597-26.54950214-12.06795526-2.41359091 2.41359091 0 4.82718182-2.41359091 2.41359091 2.41359162-7.24077344-7.24077344-7.24077344-7.24077344-7.24077344-2.41359091 2.41359091-2.41359162 7.24077344-4.82718253 4.82718253s9.65436435-4.82718253 2.41359091-7.24077414l-12.06795597-2.41359091C557.85823155 104.10309649 499.93204474 99.27591396 437.1786747 104.10309649c-2.41359091 2.41359091 0 4.82718182 0 4.82718182-2.41359091-2.41359091-4.82718253 4.82718253-4.82718253 7e-7 2.41359091-2.41359091 4.82718182 0 2.41359162-2.41359161l-4.82718253 4.82718252c-4.82718253-4.82718253-9.65436435-9.65436435-12.06795597-7.24077414l-2.41359162 2.41359162c-2.41359091-2.41359091-2.41359091-2.41359091-7.24077273-2.41359091-2.41359091 2.41359091-4.82718253 4.82718253-9.65436506 4.82718182-2.41359091 2.41359091-2.41359091 2.41359091-7.24077344 2.41359161l-4.82718182 0c-2.41359091 2.41359091-4.82718253 4.82718253-9.65436506 4.82718183 0 4.82718182 4.82718253-4.82718253 4.82718253 7e-7-2.41359091 2.41359091-7.24077344 2.41359162-9.65436506 4.82718183v0l-4.82718182-4.82718183c-9.65436435 4.82718253-19.30872941 9.65436435-26.54950214 12.06795526 2.41359091 2.41359091-2.41359162 7.24077344-7.24077344 7.24077344 0 0 2.41359091-2.41359091-7e-7-4.82718252 0 0-2.41359091 2.41359091 7e-7 4.82718252-2.41359091-2.41359091-12.06795526 7.24077344-14.48154687 0 4.82718253-4.82718253 4.82718253-4.82718253 12.06795526-7.24077344l-2.41359091-2.41359091c-2.41359091 2.41359091-4.82718253 9.65436435-9.65436506 4.82718183-2.41359091 2.41359091 0 4.82718182-2.41359091 7.24077414L311.67193461 133.06619024c0 4.82718182-4.82718182 0-7.24077273 2.41359091 2.41359091 2.41359091 0 4.82718182 2.4135902 7.24077344 4.82718182 0 4.82718253-4.82718253 7.24077415-2.41359091-7.24077344 2.41359162-9.65436435 4.82718253-12.06795597 12.06795597-2.41359091-2.41359091-7.24077344-2.41359162-4.82718253-4.82718253 0-4.82718182 4.82718182 0 4.82718253-7.1e-7-7.24077344-2.41359162 0-4.82718182-4.82718253-9.65436435-4.82718253 9.65436435-9.65436435 4.82718253-14.48154688 14.48154688l-2.41359091-2.41359091c-12.06795597 12.06795597-24.13591194 14.48154688-38.61745811 24.13591123-14.48154688 9.65436506-14.48154688 14.48154688-28.96309375 24.13591194l14.48154687 14.48154688c33.79027629-33.79027629 60.33977843-41.03104973 91.7164631-57.92618752z m28.96309446-19.30872941v0z m238.94552279 755.45402861c-4.82718182 0 2.41359091 2.41359091 7.1e-7 4.82718253-2.41359091-2.41359091-4.82718182 0-7.24077415-2.41359092-7.24077344 2.41359162-12.06795526 7.24077344-19.3087287 14.48154688l-7e-7-4.82718253c2.41359091 2.41359091 2.41359091 2.41359091 4.82718323 0-7.24077344 2.41359162-14.48154688 0-24.13591193 4.82718183-4.82718182 0 0 4.82718182-2.41359091 7.24077414 0 0-2.41359091-2.41359091-7.1e-7-4.82718253-4.82718182 0-14.48154688 0-19.3087287 4.82718183-4.82718182 0-2.41359091-2.41359091-2.41359091-2.41359091-2.41359091 2.41359091-4.82718253 4.82718253-9.65436506 0-9.65436435 4.82718253-26.54950285-2.41359091-31.37668467 7.24077414l-2.41359091-12.06795597-2.41359091 2.41359091c-14.48154688-9.65436506-31.37668467-2.41359091-48.27182316-9.65436435-2.41359091-2.41359091-7.24077344-2.41359162-9.65436435-4.82718252l-2.41359162 2.41359161c-26.54950214-7.24077344-50.68541408-16.8951385-74.82132531-21.72232102 0-4.82718182-12.06795526-7.24077344-16.89513849-7.24077344 0 0 2.41359091-2.41359091 0-4.82718182-12.06795597-2.41359091-26.54950285-12.06795597-36.2038672-21.72232032-4.82718182 0 0 4.82718182-2.41359091 7.24077273-2.41359091-2.41359091-4.82718182 0-4.82718182-4.82718182 2.41359091 2.41359091 2.41359091 2.41359091 4.82718182 0-4.82718182 0 2.41359091-2.41359091 0-4.82718182-7.24077344-2.41359162-16.89513779-16.89513779-24.13591123-14.48154759 0-4.82718182-12.06795597-12.06795597-14.48154688-14.48154688 0 4.82718182-4.82718182 0-7.24077344 7.24077344 0 0-2.41359091 2.41359091-4.82718252 7.1e-7 4.82718182 0 0-4.82718182 0-4.82718324 0-4.82718182 4.82718182 0 4.82718252 7.1e-7-4.82718253-4.82718253-9.65436435 4.82718253-14.48154758-4.82718253 2.41359091-2.41359091 0-4.82718182 2.41359162-2.41359161 4.82718182 0-4.82718253 4.82718253 0 4.82718323l7.24077344-7.24077344c0-4.82718182-7.24077344-2.41359162-7.24077344-7.24077344-2.41359091 2.41359091-9.65436435-4.82718253-9.65436435-4.82718253-2.41359091 2.41359091-2.41359162 7.24077344-4.82718253 4.82718253 2.41359162-7.24077344-4.82718182 0-4.82718253-7e-7 0-4.82718182 4.82718182 0 9.65436506-4.82718183l-7.24077344-7.24077344c-2.41359091 2.41359091 2.41359162 7.24077344 2.41359091 7.24077274s-2.41359091 2.41359091-4.82718253 7e-7 2.41359091-2.41359091 7.1e-7-4.82718252c0 4.82718182-2.41359162 7.24077344-7.24077344 7.24077343l7.24077344 7.24077344-4.82718324 0c-2.41359091 2.41359091-2.41359091 2.41359091 7.1e-7 4.82718253 2.41359091-2.41359091 7.24077344 2.41359162 9.65436435-7e-7 9.65436435 9.65436435 19.3087287 14.48154688 21.72232032 21.72232031 4.82718253 4.82718253 14.48154688 9.65436506 19.3087294 14.48154759l-2.41359091 2.41359091 2.41359091 2.41359091 4.82718182-4.82718182c2.41359091 2.41359091 4.82718182 0 7.24077415 2.41359091 0 4.82718182-4.82718182 0-4.82718324 0 7.24077344 2.41359162 14.48154688 9.65436506 19.30872941 9.65436435 2.41359091 2.41359091 2.41359091 2.41359091 7.1e-7 4.82718253 2.41359091 2.41359091 4.82718182 0 9.65436435 4.82718253-2.41359091 2.41359091-2.41359091 2.41359091 0 4.82718182 4.82718182 0 7.24077344 2.41359162 12.06795526 7.24077344 2.41359091-2.41359091 2.41359162-7.24077344 4.82718253-4.82718253-2.41359162 7.24077344 4.82718253 9.65436435 7.24077344 12.06795667l0-4.82718323 4.82718182-4.82718182c4.82718182 0 0 4.82718182 4.82718253 9.65436435-2.41359091 2.41359091-4.82718253 4.82718253-7.24077344 2.41359162 2.41359091 2.41359091 4.82718253 4.82718253 9.65436506 4.82718182l2.41359091 2.41359091c7.24077344 2.41359162 16.8951385 7.24077344 24.13591193 9.65436505-2.41359091 2.41359091 0 4.82718182 2.41359091 2.41359092l2.41359091-2.41359092c7.24077344 2.41359162 16.8951385 7.24077344 26.54950214 7.24077344l4.82718253 4.82718253 4.82718253-4.82718253s2.41359091 2.41359091 4.82718182 0c0 0 2.41359091 2.41359091 4.82718324 0 2.41359091 2.41359091 7.24077344 2.41359162 9.65436435 4.82718253 2.41359091-2.41359091 0-4.82718182 4.82718253-4.82718253-2.41359091 2.41359091-2.41359091 2.41359091-7.1e-7 4.82718253 16.8951385 7.24077344 33.79027629 4.82718253 48.27182316 9.65436435 4.82718182 0-2.41359091-2.41359091 0-4.82718182 4.82718182 0-2.41359091 2.41359091 0 4.82718182 2.41359091-2.41359091 2.41359162-7.24077344 4.82718253-4.82718253s-7.24077344 2.41359162-7e-7 4.82718253c24.13591123-4.82718253 45.85823155 2.41359091 69.99414348-2.41359091-2.41359091-2.41359091-4.82718182 0-2.41359091-2.41359091 2.41359091 2.41359091 4.82718182 0 4.82718253-7.1e-7l-2.41359162 2.41359162c7.24077344 2.41359162 14.48154688 0 24.13591123-4.82718253 4.82718182 0 4.82718182 0 7.24077414 2.41359091 4.82718182 0 4.82718253-4.82718253 9.65436435-4.82718252 4.82718182 0 7.24077344 2.41359162 12.06795526 2.41359161 4.82718182 0 9.65436435-4.82718253 12.06795668-7.24077344 2.41359091-2.41359091 2.41359091 2.41359091 4.82718182 0l2.41359091-2.41359091 9.65436506 0c7.24077344-2.41359162 14.48154688-9.65436506 19.3087287-9.65436505 2.41359091 2.41359091 2.41359091 2.41359091 4.82718253 7e-7s2.41359162-7.24077344 7.24077344-7.24077344c2.41359091-2.41359091 4.82718182 0 4.82718253-7e-7l4.82718182-4.82718182s2.41359091 2.41359091 4.82718253-7.1e-7l4.82718182-4.82718182 4.82718323 0c4.82718253-4.82718253 9.65436435-9.65436435 16.89513779-12.06795597l4.82718182 0c12.06795526-7.24077344 24.13591123-19.30872941 33.79027629-24.13591123l-12.06795597-16.89513779c-48.27182316 38.61745811-91.7164638 62.75337004-130.33392191 62.75336934z m-362.03867196-57.92618752s-2.41359091-2.41359091 0-4.82718182l2.41359091 2.41359091s0 4.82718182-2.41359091 2.41359091z m-38.61745811-48.27182316c0 4.82718182-2.41359091-2.41359091-4.82718253 7e-7l4.82718253 4.82718253s2.41359091-2.41359091 0-4.82718323z" fill="#6366F1" p-id="3063"></path><path d="M306.84475279 248.91856527c2.41359091 2.41359091 7.24077344 2.41359162 9.65436435 4.82718253l7.24077344-7.24077344c-4.82718253-4.82718253-12.06795597 2.41359091-16.89513779 2.41359091z m-4.82718253 632.36088014c-2.41359091 2.41359091-2.41359091 2.41359091 0 0zM388.90685153 210.30110717c-4.82718182 0-4.82718253 4.82718253-7.24077344 7.24077343L376.83889556 212.71469808c-19.30872941 9.65436435-36.2038672 12.06795526-55.51259589 26.54950214l4.82718252 4.82718252s2.41359091-2.41359091 4.82718183 0c2.41359091-2.41359091 4.82718253-9.65436435 7.24077344-7.24077344l2.41359091 2.41359092c4.82718182 0-2.41359091 2.41359091 7e-7 4.82718252 2.41359091-2.41359091 4.82718182 0 9.65436435-4.82718252 14.48154688 0 26.54950285-12.06795597 41.03104902-12.06795527 0-4.82718182 2.41359091-2.41359091 7.24077344-7.24077343l-9.65436435-9.65436435z m101.37082815-4.82718324c2.41359091-2.41359091 2.41359091-2.41359091 0 0 2.41359091-2.41359091 2.41359091-2.41359091 0 0 2.41359091-2.41359091 2.41359091-2.41359091 0 0z m26.54950285-7.24077273c-4.82718182 0 2.41359091 2.41359091 0 4.82718182-7.24077344-2.41359162 2.41359091-2.41359091 0-4.82718182-4.82718182 0-4.82718253 4.82718253-7.24077415 2.41359091l-2.41359091-2.41359091c-2.41359091 2.41359091-4.82718182 0-4.82718182 0l-9.65436435 9.65436435c7.24077344 2.41359162 14.48154688 0 21.72231961 2.41359091 2.41359162-7.24077344 7.24077344-7.24077344 12.06795597-12.06795597-2.41359091-2.41359091-4.82718253 4.82718253-9.65436435 7.1e-7zM36.52254391 335.80784654s-2.41359091 2.41359091 0 4.82718183l0-4.82718183z m19.30872941-4.82718252c12.06795597-16.89513779 21.72232032-31.37668538 24.13591123-48.27182317L84.79436708 277.88165832s2.41359091 2.41359091 4.82718253 7.1e-7l4.82718253-4.82718253c-2.41359091-2.41359091-7.24077344 2.41359162-4.82718324 0 19.3087287-14.48154688 26.54950285-41.03104973 41.03104973-60.33977842 0-4.82718182-2.41359091 2.41359091-4.82718183 0 2.41359091-2.41359091 14.48154688-4.82718182 9.65436435-9.65436435l-7.24077344 7.24077344c-2.41359091-2.41359091-4.82718182 0-4.82718252-7.1e-7 2.41359091-2.41359091 0-4.82718182 0-4.82718182-4.82718182 0-7.24077344 2.41359162-7.24077344-2.41359162 0 4.82718182-2.41359162 7.24077344-7.24077274 12.06795597 0 4.82718182 4.82718253 4.82718253 2.41359021 7.24077344s-4.82718253-4.82718253-4.82718182 0c-4.82718182 14.48154688-19.3087287 28.96309376-16.89513779 41.03104972-7.24077344 2.41359162-14.48154688 19.3087287-14.48154759 24.13591123-2.41359091 2.41359091-4.82718182 0-4.82718182 0l-31.37668467 55.5125966c4.82718253-9.65436435 9.65436506-14.48154688 16.89513779-12.06795596z m333.07557821 294.45811939c-2.41359091 2.41359091-2.41359091 2.41359091 0 0 0 4.82718182-2.41359091 2.41359091 0 0z" fill="#6366F1" p-id="3064"></path><path d="M89.62154961 277.88165903z m12.06795596 190.67370033c48.27182316 33.79027629 98.95723724 60.33977843 149.64265061 91.7164631 4.82718182 0 2.41359091-2.41359091 4.82718253 7e-7 2.41359162 7.24077344 14.48154688 9.65436506 19.3087287 14.48154688 4.82718182 0 2.41359091-2.41359091 4.82718253-7e-7 7.24077344 12.06795526 36.2038672 21.72232032 55.5125966 36.2038679l2.41359092-2.41359091 4.82718182 4.82718182c4.82718182 0 7.24077344-2.41359162 14.48154758-4.82718253 2.41359091 2.41359091-2.41359162 7.24077344-4.82718253 4.82718253 7.24077344 12.06795526 14.48154688 9.65436506 21.72232032 16.8951385 4.82718182 0-4.82718253-4.82718253 0-4.82718324 0-4.82718182-2.41359091 2.41359091-4.82718253 7.1e-7 0-4.82718182 2.41359091 2.41359091 4.82718253-7.1e-7L362.35734939 613.37082815c4.82718253-4.82718253 7.24077344-2.41359162 12.06795526-2.41359162-2.41359162 7.24077344 4.82718253 9.65436435 9.65436435 14.48154759l2.41359162-2.41359162c2.41359091-2.41359091 2.41359091-2.41359091 0-4.82718182-2.41359091 2.41359091-2.41359091 2.41359091-4.82718253-7.1e-7-4.82718182 0 2.41359091 2.41359091 0 4.82718324 0-4.82718182-4.82718253-4.82718253-2.41359091-7.24077415s4.82718182 0 4.82718182 0c-7.24077344-2.41359162-16.8951385-7.24077344-24.13591123-14.48154617-2.41359162 7.24077344-9.65436435-4.82718253-7.24077344 2.4135902-2.41359091-2.41359091-2.41359162-7.24077344 0-4.82718182-4.82718253-4.82718253-12.06795526-7.24077344-12.06795596-2.41359091 2.41359091-2.41359091 2.41359091-2.41359091 4.82718252-7.1e-7-4.82718182 0-4.82718253 4.82718253-7.24077343 2.41359162 0-4.82718182 0-4.82718182-2.41359162-7.24077344 2.41359091-2.41359091 4.82718182 0 4.82718323 0-2.41359162-7.24077344-7.24077344-2.41359162-9.65436505-4.82718182-2.41359162-7.24077344-21.72232032-12.06795526-28.96309376-19.30873011-4.82718182 0-2.41359091 2.41359091-4.82718253 7e-7-4.82718182 0-2.41359162-7.24077344-2.41359091-7.24077414-4.82718253 4.82718253-9.65436506 0-14.48154688 0 0-4.82718182 4.82718182 0 7.24077344-2.41359021-4.82718182 0-9.65436506 0-12.06795597-7.24077414-4.82718182 0-7.24077344-2.41359162-12.06795526-7.24077344-21.72232032-12.06795526-43.44464064-24.13591194-65.16696095-41.03104902-4.82718182 0-2.41359091 2.41359091-7.24077415 2.41359091 2.41359091-2.41359091 0-4.82718182 7.1e-7-4.82718253L188.57878685 497.51845312c2.41359091-2.41359091 0-4.82718182-2.41359162-7.24077344-69.99414278-36.2038672-79.64850783-50.68541408-149.64265132-91.7164638 2.41359091 2.41359091 2.41359091 2.41359091 7.1e-7 4.82718253-7.24077344-2.41359162 0-4.82718182-4.82718253-9.65436435-4.82718182 0-7.24077344 2.41359162-14.48154688 4.82718182 0-9.65436506 9.65436435-9.65436435 14.48154688-19.3087287-4.82718182 0-9.65436506 0-7.24077344-2.41359162s4.82718182 0 7.24077344 2.41359162L36.52254462 374.42530465c-2.41359091-2.41359091-4.82718182 0-4.82718323 0 12.06795526-7.24077344 14.48154688-24.13591194 24.13591193-33.79027558 0-4.82718182-2.41359091-2.41359091 0-4.82718323s0-4.82718182 0-4.82718182c-7.24077344 7.24077344-12.06795597 2.41359091-16.8951385 7.24077344l-21.72232031 36.20386719c0 4.82718182 4.82718253 4.82718253 2.41359161 7.24077344-4.82718182 0-2.41359091 2.41359091-4.82718182 0s0-4.82718182-7e-7-4.82718253c-4.82718253 4.82718253-9.65436435 9.65436435-7.24077344 16.8951385-7.24077344-2.41359162-7.24077344 7.24077344-9.65436435 9.65436435 38.61745811 24.13591123 16.89513779 12.06795597 55.51259589 36.2038672l16.8951385 7.24077344c7.24077344 7.24077344 16.89513779 12.06795597 31.37668537 21.72232031 2.41359091-2.41359091-4.82718253-9.65436435-7e-7-9.65436435 0 4.82718182 2.41359162 7.24077344 7e-7 9.65436435z m258.2542522 137.57469535c0 4.82718182 2.41359162 7.24077344 2.41359162 7.24077344-4.82718182 0-7.24077344-2.41359162-12.06795597-2.41359091 7.24077344-2.41359162 7.24077344-2.41359162 9.65436435-4.82718253z m-24.13591123-4.82718253c-2.41359091 2.41359091-2.41359091 2.41359091 0 0-2.41359091 2.41359091-2.41359091-2.41359091 0 0z m538.23082543 253.42707109c0-19.3087287 24.13591123-33.79027629 26.54950284-55.51259661 12.06795597-2.41359091 9.65436435-19.30872941 21.72231962-26.54950284-2.41359162-7.24077344-4.82718253 4.82718253-7.24077274 2.41359091 12.06795526-7.24077344 16.8951385-21.72232032 14.48154688-33.79027558 4.82718182 0-2.41359091 2.41359091 2.41359091 7.24077273 2.41359162-7.24077344 14.48154688-19.3087287 12.06795526-26.54950214 14.48154688-4.82718182 14.48154688-24.13591194 24.13591194-33.79027558 0-4.82718182-2.41359091-2.41359091 0-4.82718323 4.82718182 0 7.24077344-7.24077344 14.48154688-14.48154688l-7.24077344-7.24077344-2.41359091-2.41359091-4.82718253 4.82718253-2.41359091-2.41359091c-2.41359091 2.41359091-4.82718253 4.82718253-2.41359162 7.24077343 4.82718182 0 7.24077344-7.24077344 9.65436435-4.82718252-2.41359091 2.41359091-4.82718253 4.82718253 7.1e-7 9.65436435-4.82718253-4.82718253-9.65436435 4.82718253-12.06795597-2.41359091-12.06795526 21.72232032-21.72232032 41.03104902-36.2038672 60.33977913 0 4.82718182 2.41359091 2.41359091 0 4.82718182s-4.82718182 0-7.24077344 2.41359162-2.41359091 2.41359091-2.41359091 7.24077273c0 0 2.41359091 2.41359091 2.41359091-2.41359091l2.41359091 2.41359091c-2.41359091 2.41359091-4.82718182 0-7.24077273-2.41359091-12.06795526 21.72232032-24.13591194 43.44464064-33.79027628 62.75337004 2.41359091 2.41359091 4.82718253-4.82718253 7.24077344-2.41359162-2.41359091 2.41359091 4.82718253 4.82718253 2.41359091 7.24077415s-2.41359091 2.41359091-4.82718253-7.1e-7c0 0 2.41359162 7.24077344-2.41359091 7.24077415-2.41359091-2.41359091 4.82718253-4.82718253 0-4.82718324-21.72232032 12.06795526-21.72232032 41.03104902-41.03104902 60.33977914 2.41359162 7.24077344 4.82718253-4.82718253 7.24077273-2.41359091 2.41359162 7.24077344-4.82718253 9.65436435-9.65436435 9.65436435-9.65436435-19.30872941-36.2038672-16.8951385-50.68541407-36.2038672 0 0-4.82718253 4.82718253-9.65436506 0 0-4.82718182 2.41359091 2.41359091 4.82718323 0-2.41359091-2.41359091-7.24077344-2.41359162-7.24077414-2.41359091l-2.41359091-2.41359091c-2.41359091 2.41359091-7.24077344-2.41359162-7.24077344-2.41359162-4.82718182 0 2.41359091 2.41359091 0 4.82718182-4.82718253-9.65436435-21.72232032-16.8951385-31.37668467-21.72231961 2.41359091-2.41359091-7.24077344-2.41359162-9.65436506-9.65436506-2.41359091-2.41359091-4.82718253 4.82718253-7.24077344 2.41359162 0 0 4.82718253-4.82718253-2.41359091-7.24077414l-2.41359162 2.41359161c-12.06795597-12.06795597-31.37668467-12.06795597-33.79027557-24.13591193-9.65436506 0-24.13591194-14.48154688-33.79027629-14.48154617-26.54950214-21.72232032-48.27182246-28.96309376-69.99414278-45.85823226-2.41359091-2.41359091-4.82718253 4.82718253-7.24077344 2.41359162s0-4.82718182 2.41359091-7.24077415c-4.82718182 0-4.82718253-4.82718253-9.65436505-4.82718182-7.24077344-2.41359162-14.48154688 4.82718182-16.89513779-2.41359091 4.82718182 0 4.82718253 4.82718253 4.82718253-7.1e-7-7.24077344-7.24077344-19.30872941-9.65436435-19.30872941-14.48154617-12.06795597-2.41359091-21.72232032-7.24077344-31.37668467-16.89513779-26.54950285-16.89513779-57.92618751-28.96309376-79.64850783-45.85823225-4.82718182 0-2.41359091 2.41359091-4.82718182 0 2.41359091-2.41359091 0-4.82718182-2.41359162-7.24077344-2.41359091 2.41359091-7.24077344 2.41359162-4.82718182 0-2.41359091 2.41359091-2.41359162 7.24077344-4.82718253 9.65436435-2.41359091-2.41359091-4.82718182 0-4.82718253 7.1e-7s2.41359091-2.41359091-2.41359091-7.24077415c-2.41359162 7.24077344-4.82718253-4.82718253-9.65436506 0 7.24077344 12.06795526 19.3087287 14.48154688 33.79027629 24.13591123 2.41359091 2.41359091 4.82718253-4.82718253 7.24077344-2.4135902s-2.41359091 2.41359091 0 4.82718182c65.16696095 36.2038672 130.33392191 77.23491621 193.08729195 111.0251925 4.82718182 0 2.41359091-2.41359091 4.82718182 0 7.24077344 16.8951385 31.37668538 21.72232032 48.27182317 33.79027628 4.82718182 0 2.41359162-7.24077344 2.41359161-7.24077344 2.41359091 2.41359091 4.82718253 4.82718253-7e-7 9.65436435 14.48154688 14.48154688 31.37668538 21.72232032 50.68541478 26.54950285 0 0 4.82718253-4.82718253 7.24077273-2.41359091-2.41359091 2.41359091 4.82718253 4.82718253-2.41359091 7.24077273 4.82718253 4.82718253 7.24077344 2.41359162 12.06795597 7.24077415l19.3087287 19.3087287c41.03104902 21.72232032 43.44464064 19.3087287 84.47569036 45.85823155 7.24077344-16.8951385 12.06795597-31.37668467 28.96309376-53.09900428z m79.64850783-171.36497234c2.41359091 2.41359091 2.41359091 2.41359091-2.41359091 7.24077414-2.41359091-2.41359091 0-4.82718182 2.41359091-7.24077414z m19.3087287-19.3087287c2.41359091 2.41359091 4.82718253 4.82718253 2.41359162 7.24077344-4.82718253-4.82718253-4.82718253-4.82718253-2.41359162-7.24077344z m-67.58055116 101.37082815c4.82718253-4.82718253 2.41359162-7.24077344 7.24077274-12.06795597-2.41359091 2.41359091-2.41359091 2.41359091 2.41359161 7.24077344-2.41359091 2.41359091-7.24077344 7.24077344-9.65436435 4.82718253z m-33.79027628 77.23491692l2.41359091 2.41359091c-2.41359091 2.41359091-2.41359091 2.41359091-7.24077344 2.41359162l-2.41359162-2.41359162c2.41359091-2.41359091 4.82718182 0 7.24077415-2.41359091z m0-9.65436506l2.41359091 2.41359091-4.82718253 4.82718253c0-4.82718182-2.41359162-7.24077344 2.41359162-7.24077344z m-7.24077344 16.8951385c2.41359091-2.41359091 0-4.82718182-7.1e-7-4.82718253l2.41359162-2.41359162c-2.41359091 2.41359091 0 4.82718182-2.41359091 7.24077415 7.24077344 2.41359162 7.24077344-7.24077344 9.65436435-7.1e-7l-4.82718253 4.82718253c-2.41359162-7.24077344-2.41359091-2.41359091-4.82718182-4.82718182z m-9.65436506 14.48154688c4.82718182 0 7.24077344-2.41359162 7.24077344-2.41359162-2.41359091 2.41359091-4.82718182 0-7.24077344 2.41359162z m-432.03281474-209.98242974c-2.41359091-2.41359091-2.41359162-7.24077344 2.41359091-7.24077415l2.41359162 2.41359162-4.82718253 4.82718253z m16.89513779 2.41359091l2.41359091-2.41359091c2.41359091 2.41359091 0 4.82718182 0 4.82718182l-2.41359091-2.41359091z m272.73579978 161.71060657c2.41359091-2.41359091 0-4.82718182-7.1e-7-9.65436435 2.41359091 2.41359091 4.82718253 9.65436435 7.1e-7 9.65436435z m24.13591123 19.30872941c-4.82718182 0-4.82718253-4.82718253 0-4.82718182l2.41359091 2.41359091-2.41359091 2.41359091zM244.09138274 244.09138274z m613.05215144 352.38430762l2.41359091 2.41359091c0-4.82718182 0-4.82718182-2.41359091-2.41359091zM241.67779113 236.8506093s0-4.82718182 2.41359161-2.41359161l-2.41359091-2.41359091 7.24077344 2.41359161c-14.48154688-4.82718182-31.37668538-21.72232032-43.44464063-24.13591193-2.41359091-2.41359091 0-4.82718182 0-4.82718182-4.82718182 0-2.41359091 2.41359091-4.82718253-7.1e-7 2.41359162-7.24077344-9.65436435-9.65436435-12.06795597-7.24077273s4.82718182 0 0 4.82718182l-2.41359091 2.41359091-4.82718182-4.82718182c7.24077344-2.41359162 0-4.82718182 2.4135902-7.24077344-7.24077344-2.41359162-12.06795597-12.06795597-16.89513708-7.24077344 2.41359091-2.41359091 4.82718253-4.82718253-7.1e-7-4.82718253-2.41359091 2.41359091-4.82718182 0-9.65436435 7.1e-7 0-9.65436506-9.65436435-4.82718253-12.06795597-12.06795597l-2.41359091 2.41359091c2.41359091 2.41359091 0 4.82718182 2.41359162 7.24077344l-2.41359162 2.41359162c4.82718253 4.82718253 2.41359091-2.41359091 4.82718253-7.1e-7l-4.82718253 4.82718253 4.82718253 4.82718253c-2.41359091-2.41359091 0-4.82718182 2.41359091-7.24077415 2.41359091 2.41359091 2.41359091 2.41359091 2.41359091 7.24077415 0 0 4.82718182 0 7.24077415 2.41359091-2.41359091 2.41359091-2.41359162 7.24077344-7.1e-7 4.82718253 2.41359091 2.41359091 4.82718253-4.82718253 7.24077344-2.41359162s0 4.82718182-2.41359091 7.24077415c7.24077344 2.41359162 12.06795526 7.24077344 16.8951385 12.06795526 2.41359091 2.41359091 4.82718182 0 7.24077273-2.41359091 2.41359091 2.41359091-2.41359091 2.41359091 0 4.82718182 4.82718182 0 7.24077344-2.41359162 12.06795597-2.41359091l2.41359091 2.41359091c-2.41359091-2.41359091-2.41359091-2.41359091-7.24077344 2.41359162 4.82718182 0 12.06795526 7.24077344 14.48154759 9.65436435 4.82718182 0 0-4.82718182 2.41359091-2.41359092 0 9.65436506 9.65436435 4.82718253 19.3087294 9.65436435l2.41359091 2.41359092L236.8506093 236.8506093l2.41359092 2.41359092c-2.41359091-2.41359091-2.41359091-2.41359091 2.41359091-2.41359092-4.82718182 0-2.41359091-2.41359091 0 0z m-77.23491622-43.44464063c2.41359091 2.41359091 0 4.82718182-2.41359162 7.24077344 2.41359091-2.41359091 4.82718253-4.82718253 2.41359162-7.24077344z m7.24077344 12.06795526c-2.41359091-2.41359091 0-4.82718182 0-4.82718182l2.41359091 2.41359091-2.41359091 2.41359091z m16.89513779-2.41359091c2.41359091 2.41359091 4.82718253 4.82718253 4.82718253 9.65436435-2.41359091-2.41359091-4.82718253-4.82718253-4.82718253-9.65436435z m9.65436435 19.30872941c-2.41359091-2.41359091-4.82718253-4.82718253-2.4135902-7.24077344 2.41359091 2.41359091 7.24077344 7.24077344 2.4135902 7.24077344z m33.79027629 9.65436435c-2.41359091-2.41359091-2.41359091-2.41359091 0 0z m4.82718252 7e-7l-4.82718252-4.82718253c2.41359091-2.41359091 2.41359091-2.41359091 7.24077414 2.41359092l-2.41359162 2.41359161zM567.5125966 422.69712782l2.41359091 2.41359091-2.41359091-2.41359091z" fill="#6366F1" p-id="3065"></path><path d="M958.51436162 664.05624223c2.41359091 2.41359091 2.41359091 2.41359091 0 0 2.41359091 2.41359091 2.41359091 2.41359091 0 0z m9.65436506-4.82718183c-2.41359091-2.41359091 2.41359091-2.41359091 0-4.82718323-2.41359162-7.24077344-7.24077344-2.41359162-9.65436506-4.82718182l-2.41359091 2.41359091c7.24077344 7.24077344 12.06795526 7.24077344 12.06795597 7.24077414z m-7.24077344 2.41359021z m12.06795597-2.41359091c-2.41359091-2.41359091-2.41359091 2.41359091-2.41359162 2.41359162-2.41359091-2.41359091 0 0 2.41359162-2.41359162zM244.09138274 244.09138274l-7.24077344-7.24077344-2.41359161 7.24077344s2.41359091-2.41359091 4.82718323 0c0 0 2.41359091 2.41359091 4.82718182 0z m308.93966628 173.77856255z m0 0c2.41359091 2.41359091 4.82718253 4.82718253 7.24077414 2.41359091l-7.24077414-2.41359091c2.41359091 2.41359091 0 0 0 0z" fill="#6366F1" p-id="3066"></path><path d="M398.56121588 326.15348149c-14.48154688-9.65436506-36.2038672-16.8951385-50.68541337-31.37668467-12.06795526-7.24077344-26.54950285-16.89513779-41.03105043-21.72232032-4.82718182 0-2.41359091 2.41359091-4.82718182 0-12.06795597-16.89513779-33.79027629-19.30872941-50.68541408-31.37668537-4.82718182 0 2.41359091 2.41359091-2.41359091 7.24077414 0 0-4.82718253-4.82718253-2.41359162-7.24077344l-7.24077343-7.24077344c4.82718253 4.82718253 2.41359162 7.24077344 4.82718252 9.65436435 0 0 2.41359091-2.41359091 4.82718183 0l-4.82718183 4.82718183 4.82718253 4.82718252C248.91856527 248.91856527 246.50497365 246.50497365 246.50497365 246.50497365c4.82718253 4.82718253-2.41359162 7.24077344 2.41359162 7.24077344s-2.41359091-2.41359091 2.41359091-7.24077273c2.41359091 12.06795597 14.48154688 19.3087287 24.13591194 19.3087287-2.41359162 7.24077344 9.65436435 4.82718253 12.06795526 12.06795526 4.82718182 0-2.41359091-2.41359091 2.41359091-7.24077273l4.82718253 4.82718253c-2.41359091 2.41359091-2.41359091 2.41359091 0 4.82718182 4.82718253 4.82718253 14.48154688 4.82718182 21.72232032 12.06795526 72.40773439 38.61745881 139.98828626 82.06209874 209.98242974 123.09314847l-2.41359091-2.41359091 4.82718182-4.82718182c-2.41359091-2.41359091-2.41359091-2.41359091 7.1e-7-4.82718253-2.41359091-2.41359091-9.65436435-4.82718253-14.48154759-9.65436435-36.2038672-21.72232032-77.23491621-43.44464064-115.85237503-67.58055257z m-96.54364562-48.27182317c2.41359091-2.41359091 4.82718182 0 4.82718253 7.1e-7 2.41359091 2.41359091-4.82718253 4.82718253-4.82718253-7.1e-7z m229.29115915 123.09314918l4.82718182 4.82718182 2.41359091-2.41359091c-2.41359162-7.24077344-4.82718253-4.82718253-7.24077273-2.41359091z m28.96309375 19.3087287c2.41359091 2.41359091 2.41359091 2.41359091 0 0 2.41359091 2.41359091 0 0 0 0z m403.0697217 243.77270603l2.41359091 2.41359091 2.41359091-2.41359091-4.82718182 0c2.41359091-2.41359091 2.41359091-2.41359091 0 0z m-415.13767766-251.01347876c-4.82718182 0-2.41359091 2.41359091-4.82718253-7.1e-7l-7.24077344-7.24077344c-2.41359091 2.41359091-2.41359162 7.24077344-2.41359091 7.24077415s0-4.82718182 4.82718253-4.82718253c-2.41359162 7.24077344 2.41359162 7.24077344 2.41359091 12.06795597 4.82718182 0 4.82718182 0 7.24077344 2.4135902l2.41359091-2.41359091c0-4.82718182-9.65436506 0-7.24077273-2.41359091s7.24077344 2.41359162 9.65436364 0c2.41359091 2.41359091 2.41359091 2.41359091 7.1e-7 4.82718253 0 0 2.41359091-2.41359091-7.1e-7-4.82718253l-2.41359091-2.41359091c4.82718182 0-2.41359091-2.41359091-2.41359091-2.41359091z m287.21734666 166.53778839h0z m-279.97657322-149.64265131l-2.41359091-2.41359091c-2.41359091 2.41359091-2.41359162 7.24077344-2.41359162 7.24077344l4.82718253-4.82718253zM557.85823155 422.69712782c2.41359091 2.41359091 4.82718182 0 9.65436505 0-7.24077344 2.41359162-9.65436506 0-9.65436505 0m9.65436505 0s-2.41359091 2.41359091 0 0c-2.41359091 2.41359091-2.41359091 2.41359091 0 0m342.72994256 328.24839568s2.41359091 2.41359091 0 0c2.41359091-2.41359091 0 0 0 0m45.85823155-89.30287218c2.41359091-2.41359091 2.41359091-2.41359091 7.1e-7-4.82718253l-2.41359162-2.41359162c-4.82718182 0 2.41359162 7.24077344-2.41359091 7.24077415-2.41359091-2.41359091-4.82718253-4.82718253 2.41359091-7.24077415-16.89513779-12.06795597-36.2038672-16.8951385-53.09900569-33.79027558l-16.89513709-7.24077344c-7.24077344-2.41359162-14.48154688-9.65436506-21.72232102-12.06795597l2.41359162 2.41359162-2.41359091 2.41359091c-2.41359162-7.24077344-4.82718182 0-9.65436506-4.82718182 2.41359091-2.41359091 4.82718182 0 7.24077344-2.41359162-4.82718253-4.82718253-12.06795526-7.24077344-16.89513779-12.06795597l-2.41359162 2.41359162s-2.41359091-2.41359091 7.1e-7-4.82718253c-4.82718182 0 2.41359091 2.41359091-2.41359162 7.24077344-2.41359091-2.41359091 2.41359091-2.41359091-2.41359162-7.24077344-86.88928127-53.09900569-173.77856254-101.37082815-263.08143402-152.05624222l-2.41359162 2.41359162-2.41359161-2.41359162c2.41359162 7.24077344-9.65436506 0-9.65436435 9.65436435 2.41359091 2.41359091 4.82718253-4.82718253 7.24077414-2.41359091 2.41359162 7.24077344 9.65436435 4.82718253 9.65436435 9.65436435 4.82718182 0 2.41359091 2.41359091 4.82718182-4.82718182l4.82718253 4.82718252-4.82718182 4.82718183s2.41359091 2.41359091 7.24077273 2.41359091c2.41359091-2.41359091-4.82718253-4.82718253-2.41359091-7.24077274l4.82718182 4.82718183s-2.41359091-2.41359091-7.24077273 2.41359091c7.24077344 2.41359162 9.65436435 4.82718253 12.06795597 12.06795596 2.41359091 2.41359091 4.82718182 0 7.24077273-2.41359091 0 9.65436506 14.48154688 9.65436506 21.72232103 16.89513779 72.40773439 38.61745881 144.81546879 82.06209945 214.80961156 123.09314847 7.24077344-2.41359162 4.82718253-4.82718253 4.82718253-9.65436435 2.41359091 2.41359091 4.82718182 0 4.82718182 0l-4.82718182 4.82718182c28.96309376 19.3087287 60.33977913 36.2038672 91.71646309 53.0990057 7.24077344 2.41359162 14.48154688 4.82718182 21.72232032 12.06795526-2.41359091-2.41359091-7.24077344-7.24077344-14.48154617-9.65436435 7.24077344 2.41359162 12.06795597 2.41359091 14.48154617 4.82718253m-38.61745811-19.30872941l4.82718253-4.82718253 4.82718253 4.82718253c-2.41359091 2.41359091-4.82718182 0-9.65436506 0m16.89513779 2.41359091c2.41359091 2.41359091 2.41359091 2.41359091 0 0 2.41359091 2.41359091 0 0 0 0m-403.06972098-229.29115844c0-4.82718182-2.41359091-2.41359091 0 0-2.41359091-2.41359091-2.41359091 2.41359091 0 0m-287.21734667-181.01933669c-2.41359091-2.41359091-2.41359091-2.41359091 0 0M128.23900771 181.33801341l9.65436506-9.65436506s2.41359091-2.41359091-2.41359162-7.24077344c-2.41359162 7.24077344-4.82718253 9.65436435-7.24077344 16.8951385m9.65436506-9.65436506c2.41359091 2.41359091 2.41359091 2.41359091 0 0 2.41359091 2.41359091 2.41359091 2.41359091 0 0 2.41359091 2.41359091 2.41359091 2.41359091 0 0m96.54364492 72.40773439c-2.41359091 2.41359091-2.41359091 2.41359091 0 0-2.41359091 2.41359091-2.41359091 2.41359091 0 0" fill="#6366F1" p-id="3067"></path></svg>